#!OML:ASF H:\LiuWeirdWalks\Patient Classification 1\Patient 1\Session 1\male.ASF
:FULLY-SPECIFIED
:DEGREES
1181
root 0.796598 18.1819 25.5133 2.46008 5.00222 7.90477
lowerback 13.2531 -0.921774 8.03603
upperback 0.308465 0.820187 10.456
thorax -7.23898 0.343356 6.6248
lowerneck -14.9143 -0.244569 7.70139
upperneck 15.4646 2.67825 -26.4324
head 7.79336 -0.600956 -10.2836
rclavicle 2.38542e-014 -1.27222e-013
rhumerus -23.4257 -37.4628 -15.9076
rradius 28.0997
rwrist 4.0564
rhand -19.8983 -1.73617
rfingers 7.12502
rthumb 6.43799 -31.6183
lclavicle 2.38542e-014 -1.27222e-013
lhumerus -27.0791 27.4229 23.0506
lradius 40.3996
lwrist 15.231
lhand -23.3404 -6.98836
lfingers 7.12502
lthumb 3.11432 22.9686
rfemur -18.721 -0.639685 7.54001
rtibia 32.0779
rfoot -5.54733 -20.9112
rtoes -1.62069
lfemur -3.04024 1.14023 -20.1135
ltibia 48.1437
lfoot 3.8809 12.8445
ltoes -10.7784
1182
root 0.793362 18.1796 25.5702 2.43348 4.78476 7.97907
lowerback 13.3767 -0.862016 8.3361
upperback 0.319992 0.969047 10.5359
thorax -7.30374 0.406245 6.52022
lowerneck -14.8418 -0.24885 7.68709
upperneck 15.3777 2.69248 -26.6229
head 7.76023 -0.600935 -10.3478
rclavicle -2.70347e-014 -9.54166e-015
rhumerus -23.5436 -37.3981 -15.9764
rradius 28.1421
rwrist 4.02999
rhand -19.8789 -1.64867
rfingers 7.12502
rthumb 6.45674 -31.5303
lclavicle -2.70347e-014 -9.54166e-015
lhumerus -27.243 27.3715 22.8722
lradius 40.3542
lwrist 15.2949
lhand -23.3509 -7.12684
lfingers 7.12502
lthumb 3.10427 22.8303
rfemur -18.5659 -0.726198 7.48908
rtibia 32.1549
rfoot -5.90656 -20.6585
rtoes -1.60756
lfemur -3.31404 1.08169 -20.3569
ltibia 47.8942
lfoot 2.93232 12.8645
ltoes -11.1461
1183
root 0.793487 18.1766 25.6252 2.40255 4.61736 8.03974
lowerback 13.5081 -0.823839 8.70852
upperback 0.321609 1.10294 10.5984
thorax -7.3805 0.458441 6.3589
lowerneck -14.805 -0.267325 7.6214
upperneck 15.3835 2.70402 -26.7406
head 7.76082 -0.606653 -10.381
rclavicle -1.59028e-015 -1.01778e-013
rhumerus -23.6784 -37.2938 -16.0705
rradius 28.2107
rwrist 3.7879
rhand -19.9731 -1.78064
rfingers 7.12502
rthumb 6.36582 -31.665
lclavicle -1.59028e-015 -1.01778e-013
lhumerus -27.4152 27.3045 22.7032
lradius 40.3389
lwrist 15.2148
lhand -23.2656 -7.35135
lfingers 7.12502
lthumb 3.18662 22.6046
rfemur -18.3962 -0.938648 7.43744
rtibia 32.2368
rfoot -6.26171 -20.3302
rtoes -1.6255
lfemur -3.57036 0.967572 -20.5971
ltibia 47.5908
lfoot 2.03537 12.9198
ltoes -11.6601
1184
root 0.795793 18.1727 25.6773 2.36931 4.48202 8.10033
lowerback 13.6613 -0.803317 9.11597
upperback 0.317182 1.22325 10.6419
thorax -7.47329 0.5017 6.16033
lowerneck -14.7691 -0.282156 7.57661
upperneck 15.3726 2.70966 -26.844
head 7.75464 -0.611907 -10.4118
rclavicle 7.95139e-016 -9.54166e-015
rhumerus -23.809 -36.9639 -16.2687
rradius 28.3851
rwrist 3.07202
rhand -20.2486 -2.27251
rfingers 7.12502
rthumb 6.09978 -32.1647
lclavicle 7.95139e-016 -9.54166e-015
lhumerus -27.589 27.2375 22.5305
lradius 40.3426
lwrist 15.0279
lhand -23.1232 -7.57893
lfingers 7.12502
lthumb 3.32408 22.3749
rfemur -18.2195 -1.22724 7.37279
rtibia 32.3115
rfoot -6.59434 -19.9562
rtoes -1.67026
lfemur -3.81749 0.817161 -20.8415
ltibia 47.2396
lfoot 1.18846 13.0245
ltoes -12.319
1185
root 0.79899 18.169 25.7286 2.33021 4.35787 8.14437
lowerback 13.817 -0.798722 9.54003
upperback 0.326366 1.32434 10.678
thorax -7.54985 0.534691 5.94778
lowerneck -14.7813 -0.283574 7.53852
upperneck 15.3751 2.73 -26.9157
head 7.76442 -0.611008 -10.4325
rclavicle 2.38542e-015 -7.31528e-014
rhumerus -23.9048 -36.8618 -16.4688
rradius 28.4722
rwrist 2.54485
rhand -20.5234 -2.67358
rfingers 7.12502
rthumb 5.83453 -32.5733
lclavicle 2.38542e-015 -7.31528e-014
lhumerus -27.779 27.1978 22.3415
lradius 40.3735
lwrist 14.8008
lhand -22.9651 -7.80609
lfingers 7.12502
lthumb 3.47682 22.1453
rfemur -18.0351 -1.53311 7.31758
rtibia 32.3792
rfoot -6.91127 -19.5717
rtoes -1.74439
lfemur -4.04004 0.653197 -21.064
ltibia 46.8334
lfoot 0.36998 13.1972
ltoes -13.0141
1186
root 0.800328 18.1661 25.7793 2.29128 4.20392 8.14413
lowerback 13.9776 -0.790247 9.95844
upperback 0.35084 1.43007 10.722
thorax -7.61165 0.57024 5.74623
lowerneck -14.8025 -0.2732 7.52295
upperneck 15.3581 2.75508 -26.9717
head 7.77028 -0.604688 -10.4495
rclavicle 3.18055e-015 0
rhumerus -23.9825 -36.8915 -16.6721
rradius 28.4996
rwrist 2.16322
rhand -20.7505 -2.98881
rfingers 7.12502
rthumb 5.61529 -32.8944
lclavicle 3.18055e-015 0
lhumerus -27.9708 27.1757 22.1403
lradius 40.4104
lwrist 14.599
lhand -22.8378 -8.04224
lfingers 7.12502
lthumb 3.59978 21.9071
rfemur -17.867 -1.73101 7.31664
rtibia 32.4398
rfoot -7.20489 -19.2571
rtoes -1.82388
lfemur -4.2518 0.515441 -21.2164
ltibia 46.3702
lfoot -0.392724 13.4244
ltoes -13.6206
1187
root 0.800166 18.1636 25.8303 2.25896 4.02873 8.18397
lowerback 14.1259 -0.771292 10.2988
upperback 0.382474 1.53343 10.7506
thorax -7.65801 0.60716 5.57066
lowerneck -14.8046 -0.260423 7.52105
upperneck 15.3194 2.77326 -27.0134
head 7.76358 -0.597273 -10.4616
rclavicle 1.59028e-015 2.8625e-014
rhumerus -24.0863 -36.9921 -16.848
rradius 28.4756
rwrist 1.98106
rhand -20.8862 -3.1548
rfingers 7.12502
rthumb 5.48418 -33.0638
lclavicle 1.59028e-015 2.8625e-014
lhumerus -28.1426 27.146 21.9575
lradius 40.4592
lwrist 14.5893
lhand -22.8146 -8.23196
lfingers 7.12502
lthumb 3.62218 21.717
rfemur -17.7115 -1.85606 7.27339
rtibia 32.5026
rfoot -7.48858 -18.9868
rtoes -1.90857
lfemur -4.44258 0.394588 -21.3964
ltibia 45.8412
lfoot -1.11947 13.7181
ltoes -14.1497
1188
root 0.797506 18.1623 25.8823 2.23033 3.81019 8.21973
lowerback 14.267 -0.729931 10.588
upperback 0.415912 1.65696 10.7789
thorax -7.69871 0.655543 5.41874
lowerneck -14.7472 -0.257402 7.52409
upperneck 15.25 2.76758 -27.0428
head 7.72992 -0.594506 -10.4673
rclavicle -1.74931e-014 -1.08139e-013
rhumerus -24.2455 -37.0574 -16.9946
rradius 28.4537
rwrist 1.881
rhand -20.9396 -3.24776
rfingers 7.12502
rthumb 5.4327 -33.1581
lclavicle -1.74931e-014 -1.08139e-013
lhumerus -28.2773 27.0884 21.7999
lradius 40.4844
lwrist 14.7035
lhand -22.8819 -8.39055
lfingers 7.12502
lthumb 3.55716 21.5595
rfemur -17.5749 -1.84146 7.24571
rtibia 32.5704
rfoot -7.76707 -18.8043
rtoes -1.97973
lfemur -4.61497 0.318483 -21.5461
ltibia 45.2536
lfoot -1.80873 14.0531
ltoes -14.501
1189
root 0.791796 18.1615 25.9346 2.21881 3.55014 8.30547
lowerback 14.3902 -0.660873 10.7699
upperback 0.451632 1.79458 10.7916
thorax -7.72755 0.714332 5.30473
lowerneck -14.6675 -0.262067 7.5166
upperneck 15.1863 2.75026 -27.0482
head 7.69048 -0.594935 -10.4617
rclavicle 1.98785e-014 2.22639e-014
rhumerus -24.4477 -37.1193 -17.1122
rradius 28.4137
rwrist 1.88638
rhand -20.9118 -3.26405
rfingers 7.12502
rthumb 5.45951 -33.1737
lclavicle 1.98785e-014 2.22639e-014
lhumerus -28.3688 27.0343 21.6573
lradius 40.4766
lwrist 14.8439
lhand -22.9574 -8.55594
lfingers 7.12502
lthumb 3.48424 21.3953
rfemur -17.4728 -1.68725 7.17632
rtibia 32.6496
rfoot -8.04224 -18.716
rtoes -2.03433
lfemur -4.78646 0.290525 -21.7241
ltibia 44.6165
lfoot -2.46127 14.4211
ltoes -14.8017
1190
root 0.784126 18.1612 25.9859 2.22106 3.26544 8.39106
lowerback 14.5101 -0.583216 10.8998
upperback 0.494529 1.93325 10.8041
thorax -7.74704 0.775682 5.2183
lowerneck -14.5801 -0.250974 7.5548
upperneck 15.0849 2.74308 -27.087
head 7.64081 -0.587631 -10.4747
rclavicle 1.35174e-014 1.20861e-013
rhumerus -24.6258 -37.0745 -17.2832
rradius 28.4039
rwrist 1.77326
rhand -20.9145 -3.32459
rfingers 7.12502
rthumb 5.45689 -33.2343
lclavicle 1.35174e-014 1.20861e-013
lhumerus -28.442 26.9782 21.5312
lradius 40.4741
lwrist 15.1705
lhand -23.1368 -8.55554
lfingers 7.12502
lthumb 3.31101 21.3985
rfemur -17.4007 -1.43442 7.11802
rtibia 32.7322
rfoot -8.30871 -18.6981
rtoes -2.0581
lfemur -4.97008 0.303752 -21.88
ltibia 43.9523
lfoot -3.07279 14.8057
ltoes -14.9413
1191
root 0.776716 18.1611 26.0357 2.22888 2.99026 8.45619
lowerback 14.6249 -0.520456 11.025
upperback 0.553483 2.04841 10.8199
thorax -7.74519 0.826625 5.14227
lowerneck -14.5483 -0.220161 7.6085
upperneck 14.99 2.76352 -27.1341
head 7.61037 -0.570699 -10.4943
rclavicle 2.94201e-014 -3.18055e-015
rhumerus -24.7671 -37.014 -17.4871
rradius 28.3905
rwrist 1.76751
rhand -20.8163 -3.27313
rfingers 7.12502
rthumb 5.5517 -33.1804
lclavicle 2.94201e-014 -3.18055e-015
lhumerus -28.5537 26.973 21.3781
lradius 40.4797
lwrist 15.3886
lhand -23.2643 -8.54908
lfingers 7.12502
lthumb 3.18782 21.4068
rfemur -17.3375 -1.19124 7.08197
rtibia 32.8169
rfoot -8.5756 -18.6795
rtoes -2.0834
lfemur -5.16481 0.331789 -22.0053
ltibia 43.2813
lfoot -3.64222 15.2039
ltoes -15.0109
1192
root 0.769767 18.1609 26.0845 2.23855 2.72469 8.49738
lowerback 14.7377 -0.466108 11.1668
upperback 0.610477 2.15526 10.8344
thorax -7.74318 0.87289 5.05723
lowerneck -14.5129 -0.193388 7.64907
upperneck 14.891 2.77833 -27.1706
head 7.57646 -0.556038 -10.5071
rclavicle 1.59028e-015 -9.22361e-014
rhumerus -24.9205 -36.9381 -17.6635
rradius 28.3591
rwrist 1.84761
rhand -20.6343 -3.08313
rfingers 7.12502
rthumb 5.72747 -32.9857
lclavicle 1.59028e-015 -9.22361e-014
lhumerus -28.6636 26.9595 21.2325
lradius 40.4762
lwrist 15.5964
lhand -23.3952 -8.46932
lfingers 7.12502
lthumb 3.06149 21.4885
rfemur -17.2734 -0.966754 7.07088
rtibia 32.893
rfoot -8.83551 -18.6511
rtoes -2.1032
lfemur -5.37142 0.380279 -22.097
ltibia 42.6204
lfoot -4.16802 15.5944
ltoes -15.0342
1193
root 0.762734 18.1606 26.1322 2.25586 2.47645 8.52039
lowerback 14.8441 -0.429745 11.2944
upperback 0.680528 2.23342 10.8547
thorax -7.723 0.906721 4.99193
lowerneck -14.5303 -0.148824 7.69263
upperneck 14.7925 2.81773 -27.2054
head 7.55841 -0.532773 -10.5196
rclavicle -8.74653e-015 9.54166e-015
rhumerus -25.0152 -37.0638 -17.8086
rradius 28.2375
rwrist 2.22095
rhand -20.3513 -2.70525
rfingers 7.12502
rthumb 6.00066 -32.6003
lclavicle -8.74653e-015 9.54166e-015
lhumerus -28.8208 26.9989 21.0592
lradius 40.4793
lwrist 15.7016
lhand -23.4719 -8.43584
lfingers 7.12502
lthumb 2.98735 21.523
rfemur -17.2127 -0.757352 7.08029
rtibia 32.9596
rfoot -9.0923 -18.6254
rtoes -2.10365
lfemur -5.60154 0.440771 -22.1583
ltibia 41.9799
lfoot -4.66094 15.9554
ltoes -15.0023
1194
root 0.755945 18.1605 26.1797 2.27974 2.23528 8.52003
lowerback 14.949 -0.393112 11.4389
upperback 0.735607 2.31712 10.8747
thorax -7.71773 0.942053 4.91654
lowerneck -14.5319 -0.119824 7.70269
upperneck 14.7056 2.84053 -27.216
head 7.53661 -0.517335 -10.5173
rclavicle 9.54166e-015 4.13472e-014
rhumerus -25.148 -37.334 -17.8381
rradius 28.0465
rwrist 2.78865
rhand -20.016 -2.1658
rfingers 7.12502
rthumb 6.32438 -32.0514
lclavicle 9.54166e-015 4.13472e-014
lhumerus -28.9669 27.0202 20.9092
lradius 40.4595
lwrist 15.7399
lhand -23.5254 -8.44022
lfingers 7.12502
lthumb 2.93568 21.5193
rfemur -17.1527 -0.557068 7.11518
rtibia 33.0152
rfoot -9.34957 -18.599
rtoes -2.08169
lfemur -5.85123 0.517655 -22.1854
ltibia 41.3621
lfoot -5.12135 16.2656
ltoes -14.9087
1195
root 0.749014 18.16 26.2263 2.31542 2.00631 8.51343
lowerback 15.0566 -0.356868 11.5797
upperback 0.772682 2.40307 10.8896
thorax -7.73352 0.977705 4.83773
lowerneck -14.5128 -0.100145 7.68616
upperneck 14.6471 2.85851 -27.2048
head 7.51791 -0.50435 -10.5027
rclavicle 3.18055e-015 1.11319e-013
rhumerus -25.3097 -37.6893 -17.7838
rradius 27.8306
rwrist 3.40602
rhand -19.7059 -1.63555
rfingers 7.12502
rthumb 6.62375 -31.512
lclavicle 3.18055e-015 1.11319e-013
lhumerus -29.1257 27.0319 20.7697
lradius 40.4338
lwrist 15.6687
lhand -23.5 -8.55048
lfingers 7.12502
lthumb 2.96022 21.4087
rfemur -17.099 -0.366792 7.15691
rtibia 33.0592
rfoot -9.60316 -18.5737
rtoes -2.0352
lfemur -6.12735 0.607636 -22.1942
ltibia 40.7687
lfoot -5.55569 16.5055
ltoes -14.8751
